<?xml version="1.0" standalone="no"?><!DOCTYPE svg PUBLIC "-//W3C//DTD SVG 1.1//EN" "http://www.w3.org/Graphics/SVG/1.1/DTD/svg11.dtd"><svg t="1521771872681" class="icon" style="" viewBox="0 0 1024 1024" version="1.1" xmlns="http://www.w3.org/2000/svg" p-id="2053" xmlns:xlink="http://www.w3.org/1999/xlink" width="200" height="200"><defs><style type="text/css"></style></defs><path d="M759.9 709.2H407.3c-36.5 0-67.9-27.4-76.3-66.6l-60-279.3c-2.8-12.9-11.8-22.3-21.5-22.3h-29.2c-15.5 0-28-12.5-28-28s12.5-28 28-28h29.2c36.5 0 67.9 27.4 76.3 66.6l60 279.3c2.8 12.9 11.8 22.3 21.5 22.3h352.6c15.5 0 28 12.5 28 28s-12.6 28-28 28z" fill="#2D5B56" p-id="2054"></path><path d="M435.2 463.1l-38.4-98.2c-4.1-10.4 12.5-19.9 34.4-19.9h298.1c21.9 0 38.4 9.6 34.4 19.9l-38.4 98.2-288.9 0.7c-0.1 0-1.1-0.5-1.2-0.7z" fill="#BAF4EA" p-id="2055"></path><path d="M515.8 348.9h-15.1c-15.5 0-28-12.5-28-28s12.5-28 28-28h15.1c15.5 0 28 12.5 28 28s-12.6 28-28 28z" fill="#2D5B56" p-id="2056"></path><path d="M692.2 622.9H470.9c-30.3 0-56.3-21.6-61.9-51.3l-38.4-204c-3.5-18.5 1.4-37.4 13.4-51.9s29.7-22.8 48.5-22.8c15.5 0 28 12.5 28 28s-12.5 28-28 28c-2.7 0-4.4 1.4-5.4 2.5-1 1.2-2 3.1-1.5 5.7l38.4 204c0.6 3.3 3.5 5.7 6.9 5.7h221.3c3.4 0 6.2-2.4 6.9-5.7l38.4-204c0.5-2.7-0.5-4.6-1.5-5.7-1-1.2-2.7-2.5-5.4-2.5H596.7c-15.5 0-28-12.5-28-28s12.5-28 28-28h133.9c18.8 0 36.5 8.3 48.5 22.8s16.9 33.4 13.4 51.9l-38.4 204c-5.6 29.7-31.6 51.3-61.9 51.3z" fill="#2D5B56" p-id="2057"></path><path d="M444.5 814.6c-20.8 0-37.8-17-37.8-37.8 0-20.8 17-37.8 37.8-37.8 20.8 0 37.8 17 37.8 37.8 0 20.8-16.9 37.8-37.8 37.8z" fill="#BAF4EA" p-id="2058"></path><path d="M444.5 759c9.8 0 17.8 8 17.8 17.8s-8 17.8-17.8 17.8-17.8-8-17.8-17.8 8-17.8 17.8-17.8m0-40c-31.9 0-57.8 25.9-57.8 57.8s25.9 57.8 57.8 57.8 57.8-25.9 57.8-57.8-25.9-57.8-57.8-57.8z" fill="#2D5B56" p-id="2059"></path><path d="M678.9 814.6c-20.8 0-37.8-17-37.8-37.8 0-20.8 17-37.8 37.8-37.8s37.8 17 37.8 37.8c0 20.8-16.9 37.8-37.8 37.8z" fill="#BAF4EA" p-id="2060"></path><path d="M678.9 759c9.8 0 17.8 8 17.8 17.8s-8 17.8-17.8 17.8-17.8-8-17.8-17.8 8-17.8 17.8-17.8m0-40c-31.9 0-57.8 25.9-57.8 57.8s25.9 57.8 57.8 57.8 57.8-25.9 57.8-57.8-25.9-57.8-57.8-57.8zM171.3 136.3c12 0 21.7 9.7 21.7 21.7s-9.7 21.7-21.7 21.7-21.7-9.7-21.7-21.7 9.7-21.7 21.7-21.7m0-40c-34 0-61.7 27.7-61.7 61.7s27.7 61.7 61.7 61.7S233 192 233 158s-27.7-61.7-61.7-61.7zM893.3 186.9h-0.2c-8.3-0.1-14.9-6.9-14.8-15.2l1-69.5c0.1-8.2 6.8-14.8 15-14.8h0.2c8.3 0.1 14.9 6.9 14.8 15.2l-1 69.5c-0.1 8.2-6.8 14.8-15 14.8z" fill="#2D5B56" p-id="2061"></path><path d="M943.6 137.6v0.2c-0.1 8.3-6.9 14.9-15.2 14.8l-69.5-1c-8.2-0.1-14.8-6.8-14.8-15v-0.2c0.1-8.3 6.9-14.9 15.2-14.8l69.5 1c8.2 0.1 14.8 6.8 14.8 15z" fill="#2D5B56" p-id="2062"></path><path d="M883.6 854.7m-30.9 0a30.9 30.9 0 1 0 61.8 0 30.9 30.9 0 1 0-61.8 0Z" fill="#2D5B56" p-id="2063"></path><path d="M593.8 159.8m-20.7 0a20.7 20.7 0 1 0 41.4 0 20.7 20.7 0 1 0-41.4 0Z" fill="#2D5B56" p-id="2064"></path><path d="M216.6 763.6v30.8M216.6 804.4c-5.5 0-10-4.5-10-10v-30.8c0-5.5 4.5-10 10-10s10 4.5 10 10v30.8c0 5.5-4.4 10-10 10zM216.6 846.2V877M216.6 887c-5.5 0-10-4.5-10-10v-30.8c0-5.5 4.5-10 10-10s10 4.5 10 10V877c0 5.5-4.4 10-10 10zM160 820.3h30.7M190.7 830.3H160c-5.5 0-10-4.5-10-10s4.5-10 10-10h30.8c5.5 0 10 4.5 10 10s-4.5 10-10.1 10z" fill="#2D5B56" p-id="2065"></path><path d="M242.5 820.3h30.8M273.3 830.3h-30.8c-5.5 0-10-4.5-10-10s4.5-10 10-10h30.8c5.5 0 10 4.5 10 10s-4.5 10-10 10z" fill="#2D5B56" p-id="2066"></path><path d="M176.6 860.4l21.7-21.8M176.6 870.4c-2.6 0-5.1-1-7.1-2.9-3.9-3.9-3.9-10.2 0-14.1l21.8-21.8c3.9-3.9 10.2-3.9 14.1 0 3.9 3.9 3.9 10.2 0 14.1l-21.8 21.8c-1.9 1.9-4.5 2.9-7 2.9z" fill="#2D5B56" p-id="2067"></path><path d="M235 802l21.7-21.8M235 812c-2.6 0-5.1-1-7.1-2.9-3.9-3.9-3.9-10.2 0-14.1l21.8-21.8c3.9-3.9 10.2-3.9 14.1 0 3.9 3.9 3.9 10.2 0 14.1L242 809c-1.9 2-4.5 3-7 3z" fill="#2D5B56" p-id="2068"></path><path d="M256.7 860.4L235 838.6M256.7 870.4c-2.6 0-5.1-1-7.1-2.9l-21.8-21.8c-3.9-3.9-3.9-10.2 0-14.1 3.9-3.9 10.2-3.9 14.1 0l21.8 21.8c3.9 3.9 3.9 10.2 0 14.1-1.9 1.9-4.4 2.9-7 2.9z" fill="#2D5B56" p-id="2069"></path><path d="M198.3 802l-21.7-21.8M198.3 812c-2.6 0-5.1-1-7.1-2.9l-21.8-21.8c-3.9-3.9-3.9-10.2 0-14.1 3.9-3.9 10.2-3.9 14.1 0l21.8 21.8c3.9 3.9 3.9 10.2 0 14.1-1.9 1.9-4.4 2.9-7 2.9z" fill="#2D5B56" p-id="2070"></path></svg>