<?xml version="1.0" standalone="no"?><!DOCTYPE svg PUBLIC "-//W3C//DTD SVG 1.1//EN" "http://www.w3.org/Graphics/SVG/1.1/DTD/svg11.dtd"><svg t="1521769927180" class="icon" style="" viewBox="0 0 1024 1024" version="1.1" xmlns="http://www.w3.org/2000/svg" p-id="2194" xmlns:xlink="http://www.w3.org/1999/xlink" width="200" height="200"><defs><style type="text/css"></style></defs><path d="M692.1 269.2c-15.1 0-27.3-12.3-27.3-27.3 0-15.1 12.3-27.3 27.3-27.3 15.1 0 27.3 12.3 27.3 27.3s-12.2 27.3-27.3 27.3z m0-41.3c-7.7 0-13.9 6.2-13.9 13.9s6.2 13.9 13.9 13.9 13.9-6.2 13.9-13.9c0-7.6-6.2-13.9-13.9-13.9z" fill="#47B7F8" p-id="2195"></path><path d="M249 312.7h-12v-12c0-3.2-2.6-5.8-5.8-5.8-3.2 0-5.8 2.6-5.8 5.8v12h-12c-3.2 0-5.8 2.6-5.8 5.8s2.6 5.8 5.8 5.8h12v12c0 3.2 2.6 5.8 5.8 5.8 3.2 0 5.8-2.6 5.8-5.8v-12h12c3.2 0 5.8-2.6 5.8-5.8s-2.6-5.8-5.8-5.8zM853.2 429h-12v-12c0-3.2-2.6-5.8-5.8-5.8-3.2 0-5.8 2.6-5.8 5.8v12h-12c-3.2 0-5.8 2.6-5.8 5.8s2.6 5.8 5.8 5.8h12v12c0 3.2 2.6 5.8 5.8 5.8 3.2 0 5.8-2.6 5.8-5.8v-12h12c3.2 0 5.8-2.6 5.8-5.8s-2.6-5.8-5.8-5.8z" fill="#F7E42F" p-id="2196"></path><path d="M112.5 586.5H98.6v-13.9a6.7 6.7 0 0 0-13.4 0v13.9h-14a6.7 6.7 0 0 0 0 13.4h13.9v13.9a6.7 6.7 0 0 0 13.4 0v-13.9h13.9c3.7 0 6.7-3 6.7-6.7 0.1-3.7-2.9-6.7-6.6-6.7z" fill="#F8B62D" p-id="2197"></path><path d="M340.1 251.9m-10.1 0a10.1 10.1 0 1 0 20.2 0 10.1 10.1 0 1 0-20.2 0Z" fill="#F8B62D" p-id="2198"></path><path d="M790.8 305.1m-13.4 0a13.4 13.4 0 1 0 26.8 0 13.4 13.4 0 1 0-26.8 0Z" fill="#F8B62D" p-id="2199"></path><path d="M112.5 251.9m-13.4 0a13.4 13.4 0 1 0 26.8 0 13.4 13.4 0 1 0-26.8 0Z" fill="#F7E42F" p-id="2200"></path><path d="M125.5 434.8c-15.1 0-27.3-12.3-27.3-27.3 0-15.1 12.3-27.3 27.3-27.3s27.3 12.3 27.3 27.3-12.3 27.3-27.3 27.3z m0-41.3c-7.7 0-13.9 6.2-13.9 13.9s6.2 13.9 13.9 13.9 13.9-6.2 13.9-13.9c0-7.6-6.3-13.9-13.9-13.9z" fill="#F8B62D" p-id="2201"></path><path d="M454.5 141.2c-1.5-1.4-3.8-1.4-5.3 0-0.7 0.7-1.1 1.6-1.1 2.6s0.4 1.9 1.1 2.6l11.9 11.9c0.7 0.7 1.6 1.1 2.6 1.1s1.9-0.4 2.6-1.1c1.4-1.5 1.4-3.8 0-5.3l-11.8-11.8zM486 172.7c-0.7-0.7-1.6-1.1-2.6-1.1s-1.9 0.4-2.6 1.1c-1.4 1.5-1.4 3.8 0 5.3l11.9 11.9c0.7 0.7 1.6 1.1 2.6 1.1s1.9-0.4 2.6-1.1c0.7-0.7 1.1-1.6 1.1-2.6s-0.4-1.9-1.1-2.6l-11.9-12zM483.4 159.5c1 0 1.9-0.4 2.6-1.1l11.9-11.9c0.7-0.7 1.1-1.6 1.1-2.6s-0.4-1.9-1.1-2.6c-1.5-1.5-3.8-1.5-5.3 0l-11.9 11.9c-1.4 1.5-1.4 3.8 0 5.3 0.8 0.6 1.7 1 2.7 1zM461.2 172.7l-11.9 11.9c-0.7 0.7-1.1 1.6-1.1 2.6s0.4 1.9 1.1 2.6c0.7 0.7 1.6 1.1 2.6 1.1s1.9-0.4 2.6-1.1l11.9-11.9c1.4-1.5 1.4-3.8 0-5.3-1.3-1.3-3.8-1.3-5.2 0.1zM463.5 165.6c0-2.1-1.7-3.7-3.7-3.7h-16.9c-2.1 0-3.7 1.7-3.7 3.7s1.7 3.7 3.7 3.7h16.9c2 0 3.7-1.7 3.7-3.7zM504.4 161.8h-16.9c-2.1 0-3.7 1.7-3.7 3.7s1.7 3.7 3.7 3.7h16.9c2.1 0 3.7-1.7 3.7-3.7s-1.7-3.7-3.7-3.7zM473.6 131.1c-2.1 0-3.7 1.7-3.7 3.7v16.9c0 2.1 1.7 3.7 3.7 3.7s3.7-1.7 3.7-3.7v-16.9c0-2-1.6-3.7-3.7-3.7zM473.6 175.7c-2.1 0-3.7 1.7-3.7 3.7v16.9c0 2.1 1.7 3.7 3.7 3.7s3.7-1.7 3.7-3.7v-16.9c0-2.1-1.6-3.7-3.7-3.7z" fill="#FAEE00" p-id="2202"></path><path d="M905.9 559.8c-1.5-1.4-3.8-1.4-5.3 0-0.7 0.7-1.1 1.6-1.1 2.6s0.4 1.9 1.1 2.6l11.9 11.9c0.7 0.7 1.6 1.1 2.6 1.1s1.9-0.4 2.6-1.1c1.4-1.5 1.4-3.8 0-5.3l-11.8-11.8zM937.5 591.3c-0.7-0.7-1.6-1.1-2.6-1.1s-1.9 0.4-2.6 1.1c-1.4 1.5-1.4 3.8 0 5.3l11.9 11.9c0.7 0.7 1.6 1.1 2.6 1.1s1.9-0.4 2.6-1.1c0.7-0.7 1.1-1.6 1.1-2.6s-0.4-1.9-1.1-2.6l-11.9-12zM934.8 578.1c1 0 1.9-0.4 2.6-1.1l11.9-11.9c0.7-0.7 1.1-1.6 1.1-2.6s-0.4-1.9-1.1-2.6c-1.5-1.5-3.8-1.5-5.3 0l-11.9 11.9c-1.4 1.5-1.4 3.8 0 5.3 0.8 0.6 1.7 1 2.7 1zM912.6 591.3l-11.9 11.9c-0.7 0.7-1.1 1.6-1.1 2.6s0.4 1.9 1.1 2.6c0.7 0.7 1.6 1.1 2.6 1.1s1.9-0.4 2.6-1.1l11.9-11.9c1.4-1.5 1.4-3.8 0-5.3-1.3-1.3-3.8-1.3-5.2 0.1zM914.9 584.2c0-2.1-1.7-3.7-3.7-3.7h-16.9c-2.1 0-3.7 1.7-3.7 3.7s1.7 3.7 3.7 3.7h16.9c2 0 3.7-1.7 3.7-3.7zM955.8 580.4h-16.9c-2.1 0-3.7 1.7-3.7 3.7s1.7 3.7 3.7 3.7h16.9c2.1 0 3.7-1.7 3.7-3.7s-1.7-3.7-3.7-3.7zM925 549.7c-2.1 0-3.7 1.7-3.7 3.7v16.9c0 2.1 1.7 3.7 3.7 3.7s3.7-1.7 3.7-3.7v-16.9c0.1-2-1.6-3.7-3.7-3.7zM925 594.3c-2.1 0-3.7 1.7-3.7 3.7v16.9c0 2.1 1.7 3.7 3.7 3.7s3.7-1.7 3.7-3.7V598c0.1-2-1.6-3.7-3.7-3.7z" fill="#F8B62D" p-id="2203"></path><path d="M834 892.9h-24c-5.6 0-10.1-4.5-10.1-10.1s4.5-10.1 10.1-10.1h24c5.6 0 10.1 4.5 10.1 10.1s-4.5 10.1-10.1 10.1zM192.2 892.9h-30.7c-5.6 0-10.1-4.5-10.1-10.1s4.5-10.1 10.1-10.1h30.7c5.6 0 10.1 4.5 10.1 10.1s-4.5 10.1-10.1 10.1zM780.3 892.9H226.1c-5.6 0-10.1-4.5-10.1-10.1s4.5-10.1 10.1-10.1h554.1c5.6 0 10.1 4.5 10.1 10.1s-4.5 10.1-10 10.1z" fill="#3E3A39" p-id="2204"></path><path d="M743 416.7c14.7 36.6 22.9 76.5 22.9 118.3 0 175.5-142.3 317.9-317.9 317.9-28.3 0-55.7-3.7-81.9-10.7 42.9 25.1 92.7 39.5 146 39.5 160.1 0 289.8-129.8 289.8-289.8C802 526 780 465.3 743 416.7z" fill="#F8B62D" p-id="2205"></path><path d="M765.9 535c0-41.8-8.2-81.8-22.9-118.3C690.1 347 606.4 302 512.1 302 352 302 222.3 431.8 222.3 591.8c0 106.8 57.8 200.1 143.8 250.3 26.1 6.9 53.5 10.7 81.9 10.7 175.6 0.1 317.9-142.2 317.9-317.8z" fill="#FCEE21" p-id="2206"></path><path d="M498.1 891.7c-173.1 0-313.9-140.8-313.9-313.9 0-47.8 10.5-93.7 31.1-136.5 2.4-5 8.5-7.1 13.5-4.7 5 2.4 7.1 8.5 4.7 13.5-19.3 40-29.1 82.9-29.1 127.7 0 162 131.8 293.8 293.8 293.8S792 739.8 792 577.8 660.1 284.1 498.1 284.1c-70.5 0-138.7 25.4-192 71.5-4.2 3.6-10.6 3.2-14.2-1-3.6-4.2-3.2-10.6 1-14.2 57-49.2 129.8-76.4 205.2-76.4C671.2 264 812 404.8 812 577.9S671.2 891.7 498.1 891.7z" fill="#3E3A39" p-id="2207"></path><path d="M503.2 674.3l-56.8 30.5c-9.6 5.1-20.7-3.2-18.9-14l10.9-64.6c0.7-4.3-0.7-8.7-3.7-11.8l-46-45.7c-7.7-7.7-3.5-21.1 7.2-22.7l63.5-9.4c4.2-0.6 7.9-3.3 9.8-7.3l28.4-58.8c4.8-9.9 18.6-9.9 23.4 0l28.4 58.8c1.9 3.9 5.6 6.6 9.8 7.3l63.5 9.4c10.7 1.6 15 15 7.2 22.7l-46 45.7c-3.1 3.1-4.5 7.5-3.7 11.8l10.9 64.6c1.8 10.9-9.3 19.1-18.9 14l-56.8-30.5c-3.8-2-8.4-2-12.2 0z" fill="#FFFFFF" p-id="2208"></path><path d="M577 716.4c-4 0-8-1-11.6-2.9l-65-34.2c-1.4-0.7-3.1-0.7-4.5 0l-65 34.2c-8.5 4.5-18.6 3.7-26.3-1.9-7.8-5.6-11.6-15-9.9-24.4l12.4-72.4c0.3-1.6-0.2-3.2-1.4-4.3l-52.6-51.2c-6.9-6.7-9.3-16.5-6.3-25.6 3-9.1 10.7-15.6 20.2-17l72.6-10.6c1.6-0.2 2.9-1.2 3.6-2.6l32.5-65.8c4.2-8.6 12.8-13.9 22.4-13.9s18.2 5.3 22.4 13.9l32.5 65.8c0.7 1.4 2.1 2.4 3.6 2.6l72.6 10.6c9.5 1.4 17.2 7.9 20.2 17s0.5 18.9-6.3 25.6l-52.6 51.2c-1.1 1.1-1.7 2.7-1.4 4.3l12.4 72.3c1.6 9.4-2.2 18.8-9.9 24.4-4.3 3.3-9.4 4.9-14.6 4.9z m-78.9-57.7c4 0 8 1 11.6 2.9l65 34.2c2.4 1.3 4.3 0.2 5.1-0.4 0.7-0.5 2.4-2 1.9-4.7l-12.4-72.3c-1.4-8.1 1.3-16.4 7.2-22.1l52.6-51.2c1.9-1.9 1.5-4.1 1.2-4.9-0.3-0.9-1.2-2.9-3.9-3.3l-72.6-10.6c-8.1-1.2-15.2-6.3-18.8-13.7l-32.5-65.8c-1.2-2.4-3.4-2.7-4.3-2.7s-3.1 0.3-4.3 2.7l-32.5 65.8c-3.6 7.4-10.7 12.5-18.8 13.7L370 536.9c-2.7 0.4-3.6 2.4-3.9 3.3-0.3 0.9-0.7 3 1.2 4.9l52.6 51.2c5.9 5.7 8.6 14 7.2 22.1l-12.4 72.4c-0.5 2.7 1.2 4.2 1.9 4.7s2.7 1.6 5.1 0.4l65-34.2c3.4-2.1 7.4-3 11.4-3z" fill="#3E3A39" p-id="2209"></path><path d="M365.7 370.2c-7.8 3.8-15 9.1-21 15.4-4.2 4.5-4.8 12.3 0 16.6 4.6 4.2 12.1 4.8 16.6 0 1.3-1.3 2.5-2.6 3.9-3.8 0.6-0.5 1.2-1.1 1.8-1.6 1.7-1.4-2.1 1.4 1-0.8 3-2.1 6.1-3.9 9.5-5.5 5.6-2.7 7.5-11.1 4.2-16.1-3.5-5.7-10-7-16-4.2z" fill="#FFFFFF" p-id="2210"></path><path d="M320.5 412.1c-17.4 15.9-30.1 35.4-38.1 57.5-5.2 14.3 17.6 20.4 22.7 6.3 6.6-18.3 17.6-34.1 32-47.1 11.3-10.3-5.4-26.9-16.6-16.7z" fill="#FFFFFF" p-id="2211"></path><path d="M244.3 414.6c-2.2 0-4.4-0.7-6.2-2.2-4.4-3.5-5.1-9.8-1.7-14.2l24.6-31.1c3.5-4.4 9.8-5.1 14.2-1.7 4.4 3.5 5.1 9.8 1.7 14.2l-24.6 31.1c-2.1 2.6-5 3.9-8 3.9z" fill="#3E3A39" p-id="2212"></path></svg>