<?xml version="1.0" standalone="no"?><!DOCTYPE svg PUBLIC "-//W3C//DTD SVG 1.1//EN" "http://www.w3.org/Graphics/SVG/1.1/DTD/svg11.dtd"><svg t="1522048308435" class="icon" style="" viewBox="0 0 1024 1024" version="1.1" xmlns="http://www.w3.org/2000/svg" p-id="4860" xmlns:xlink="http://www.w3.org/1999/xlink" width="200" height="200"><defs><style type="text/css"></style></defs><path d="M230.010886 692.972354h418.254689v2.822219H230.010886zM604.472137 601.069246h-211.885181c-7.436548 0-13.486328-6.04978-13.486329-13.486328v-137.232186c0-7.436196 6.04978-13.485976 13.486329-13.485975h211.885181c7.436196 0 13.485976 6.04978 13.485976 13.485975v137.232186c-0.000353 7.436548-6.04978 13.486328-13.485976 13.486328z m-211.885181-161.381917c-5.880094 0-10.664109 4.783662-10.66411 10.663756v137.232186c0 5.880094 4.784015 10.664109 10.66411 10.664109h211.885181c5.880094 0 10.663756-4.784015 10.663757-10.664109v-137.232186c0-5.880094-4.783662-10.663756-10.663757-10.663756h-211.885181z" fill="#0E0E0E" p-id="4861"></path><path d="M611.056728 612.339074h-225.499921c-14.561594 0-26.408213-11.846619-26.408213-26.40786v-141.185409c0-14.561594 11.846619-26.408213 26.408213-26.408214h8.227122v-5.996863c0-5.492745 4.468632-9.961376 9.961377-9.961377h57.002483c5.492745 0 9.961376 4.468632 9.961376 9.961377v5.996863h140.34721c14.560889 0 26.40786 11.846619 26.408566 26.408214v141.185409c0 14.561241-11.846619 26.40786-26.408213 26.40786z m-225.499921-191.179616c-13.005493 0-23.585994 10.580854-23.585994 23.585994v141.185409c0 13.00514 10.580854 23.585641 23.585994 23.585641h225.499921c13.005493 0 23.585994-10.580501 23.585994-23.585641v-141.185409c-0.000706-13.005493-10.581559-23.585994-23.586347-23.585994h-143.169429v-8.819083c0-3.936643-3.202514-7.139157-7.139157-7.139157h-57.002483c-3.936643 0-7.139157 3.202514-7.139157 7.139157v8.819083h-11.049342z" fill="#0E0E0E" p-id="4862"></path><path d="M635.083341 669.684104c0 13.576287-11.00595 24.582237-24.582237 24.582237h-219.577141c-13.576287 0-24.582237-11.00595-24.582237-24.582237l-14.251503-181.57525c0-13.576287 11.00595-24.582237 24.582237-24.582237h247.011231c13.576287 0 24.582237 11.00595 24.582237 24.582237l-13.182587 181.57525z" fill="#FFFFFF" p-id="4863"></path><path d="M610.501104 695.677451h-219.577141c-14.314297 0-25.963361-11.629661-25.993347-25.937255l-14.251503-181.575956v-0.055386c0-14.332642 11.660705-25.993347 25.993347-25.993347h247.011231c14.332642 0 25.993347 11.660705 25.993347 25.993347l-0.003881 0.102305-13.178354 181.525156c-0.028928 14.308653-11.678344 25.941136-25.993699 25.941136z m-256.999771-207.623278l14.251502 181.574193v0.055386c0 12.776893 10.394587 23.17148 23.171128 23.17148h219.577141c12.776893 0 23.17148-10.394587 23.17148-23.17148l0.003881-0.102306 13.178353-181.523392c-0.027869-12.752904-10.411873-23.12068-23.171127-23.12068h-247.011231c-12.758549 0.000353-23.1422 10.364601-23.171127 23.116799z" fill="#0E0E0E" p-id="4864"></path><path d="M594.580611 524.05123l2.067276 1.92052-44.453837 47.863784-2.067629-1.920168z" fill="#0E0E0E" p-id="4865"></path><path d="M550.439687 525.73927L598.310527 570.19346l-1.920521 2.067628-47.870486-44.453837zM447.226888 524.05511l2.068334 1.920168-44.447487 47.870487-2.068334-1.920168z" fill="#0E0E0E" p-id="4866"></path><path d="M403.040104 525.735037l47.870133 44.453484-1.920167 2.068334-47.870487-44.453837zM434.576995 659.233426c8.13152-28.74995 34.606761-49.877085 65.924577-49.877085s57.792705 21.127135 65.924225 49.877085h2.9531c-8.210542-30.339918-35.976243-52.727174-68.877677-52.727174-32.901082 0-60.667135 22.387256-68.877678 52.727174h2.953453zM404.839621 411.271459h2.82222v8.55062h-2.82222zM413.377541 411.271459h2.822219v8.55062h-2.822219zM422.320096 411.271459h2.822219v8.55062h-2.822219zM457.483187 411.271459h2.822219v8.55062h-2.822219zM572.862221 448.251354h2.82222v65.718555h-2.82222zM589.892552 448.251354h2.822219v65.718555h-2.822219zM606.923235 448.251354h2.82222v65.718555h-2.82222zM623.953566 448.251354h2.822219v65.718555h-2.822219zM388.420301 329.329023c-15.134857 0-27.873298-3.071986-37.198263-9.024047-5.762972-3.67841-10.207262-8.504053-12.949402-13.906839-13.761848-1.243893-25.397859-5.878683-34.785266-13.882498-14.698472-12.532066-20.962741-31.129433-23.629738-44.52404-2.876547-14.447647-2.318453-25.786266-2.293406-26.26181l2.818339 0.148872c-0.005997 0.113594-0.56268 11.521358 2.257776 25.637042 2.5848 12.93529 8.619058 30.871553 22.688527 42.8614 8.564378 7.29826 19.144879 11.653297 31.629672 13.04712-0.829027-2.191101-1.386415-4.455932-1.648881-6.75851-0.617361-5.416192 0.44838-10.676103 3.000372-14.81136 2.663822-4.315879 6.776502-7.103879 11.58133-7.849298l0.052564-0.007409c16.74705-1.955445 29.464677 1.127829 34.892158 8.45925 2.655003 3.586335 3.196516 7.88634 1.48484 11.797583-2.283176 5.217578-8.093773 8.823669-15.552899 9.655871-10.555454 2.263067-20.298108 3.167589-29.197977 2.719562 2.175226 3.760255 5.64585 7.770981 11.170345 11.296991 10.57027 6.746868 25.891394 9.601896 44.307081 8.257462l0.20567 2.814811c-3.024008 0.21978-5.972522 0.329847-8.832842 0.329847z m-48.319219-25.619756c9.101305 0.642055 19.160401-0.213783 30.144831-2.573864l0.143581-0.023283c6.476641-0.705908 11.465972-3.692521 13.346276-7.989351 1.314096-3.003194 0.899582-6.194772-1.167694-8.987005-4.735684-6.396913-16.797497-9.139758-32.269257-7.338123-8.205956 1.289049-13.329343 9.505588-12.185285 19.548456 0.218016 1.913465 0.750358 4.494737 1.987548 7.36317zM449.051806 370.954643c-16.295142 0-31.532305-13.499028-45.28745-40.12173l-0.545394-1.05551 0.947207-0.717197c0.351014-0.265641 8.732653-6.508038 20.723558-6.508038 12.87179 0 24.574476 7.025915 34.782796 20.882661 3.012719 4.182529 8.887875 6.40926 19.653937 7.458773l2.436281 0.237419-1.42628 1.989312c-0.522111 0.728133-12.997379 17.83431-31.284655 17.83431z m-42.201001-40.306233c13.072168 24.873278 27.266873 37.484013 42.201001 37.484014 13.333223 0 23.640674-10.321562 27.423506-14.715405-10.050276-1.256593-15.825948-3.797649-19.083848-8.320256-9.638232-13.082398-20.576449-19.722375-32.501737-19.722375-8.801444 0-15.59629 3.726388-18.038922 5.274022z" fill="#0E0E0E" p-id="4867"></path><path d="M463.310364 356.746179c-9.013816 0-18.859834-2.471911-29.161994-7.38222-12.731385-6.067772-21.556112-13.581226-21.925117-13.89802l1.837265-2.142417c0.088194 0.075494 8.954197 7.617876 21.361732 13.5209 11.31957 5.3855 28.007706 10.477137 43.225819 4.150074l1.083379 2.605967c-5.05142 2.100084-10.561098 3.145716-16.421084 3.145716z" fill="#0E0E0E" p-id="4868"></path><path d="M432.030295 348.067855c-6.149616-3.145716-7.756165-19.313153-7.919148-21.146185l2.811283-0.25012c0.564444 6.325299 2.798936 17.045147 6.393386 18.883824l-1.285521 2.512481zM451.351562 355.416561c-8.917155-1.343376-10.603079-14.987749-10.670459-15.567715l2.803169-0.326672c0.014111 0.12065 1.499657 12.081216 8.287448 13.103918l-0.420158 2.790469zM426.854344 359.271713c-2.099026 0-4.037891-0.675216-5.526964-2.437692l2.155823-1.821037c4.372324 5.175951 16.889572-5.048598 17.014808-5.153373l1.81116 2.164642c-0.456141 0.381352-8.763697 7.24746-15.454827 7.24746zM799.5824 694.993416c-20.311161 0-36.835608-16.524448-36.835609-36.835609s16.524448-36.835608 36.835609-36.835608 36.835608 16.524448 36.835608 36.835608-16.524448 36.835608-36.835608 36.835609z m0-70.849351c-18.755059 0-34.013389 15.25833-34.013389 34.013389s15.25833 34.013389 34.013389 34.013389 34.013389-15.25833 34.013389-34.013389-15.25833-34.013389-34.013389-34.013389z" fill="#0E0E0E" p-id="4869"></path><path d="M800.039952 688.259247c-16.500459 0-29.925051-13.424592-29.925051-29.925051s13.424592-29.925051 29.925051-29.925051 29.925051 13.424592 29.925051 29.925051-13.424592 29.925051-29.925051 29.925051z m0-57.028236c-14.944358 0-27.102832 12.158474-27.102832 27.102832s12.158474 27.102832 27.102832 27.102832 27.102832-12.158474 27.102832-27.102832-12.158474-27.102832-27.102832-27.102832z" fill="#0E0E0E" p-id="4870"></path><path d="M662.759083 692.492929h139.703039v2.82222h-139.703039z" fill="#0E0E0E" p-id="4871"></path><path d="M694.758113 675.96707h65.5718v2.82222h-65.5718z" fill="#0E0E0E" p-id="4872"></path><path d="M818.241856 656.568898l-14.416249 4.897962 4.113737 3.567991-2.591503 2.988024-5.081053-4.406895-1.965676 2.266595 5.081053 4.406895-2.61655 3.0166-5.081053-4.406895-3.593391 4.143018-4.589987-3.981094 3.593391-4.143018-5.25462-4.557531 2.61655-3.0166 5.25462 4.557531 1.965676-2.266595-5.25462-4.557531 2.591503-2.988025 4.229449 3.66818 2.96968-14.82653 4.90784 4.257318c-1.767062 6.527794-2.990847 10.777703-3.672766 12.749376l0.101247 0.087842a48.609203 48.609203 0 0 0 0.96273-0.555625c0.615597-0.360186 2.609847-1.260474 5.984516-2.701217l5.096928-2.230964 4.648548 4.031188z" fill="" p-id="4873"></path><path d="M697.810696 454.865225c-9.147519 0-16.589006-7.44184-16.589006-16.589006s7.44184-16.589006 16.589006-16.589006 16.589006 7.44184 16.589006 16.589006-7.441487 16.589006-16.589006 16.589006z m0-30.355792c-7.591418 0-13.766787 6.175722-13.766786 13.766786s6.175722 13.766787 13.766786 13.766787 13.766787-6.175722 13.766787-13.766787-6.175369-13.766787-13.766787-13.766786z" fill="#0E0E0E" p-id="4874"></path><path d="M294.157466 561.806176c-7.34024 0-13.311704-5.971464-13.311704-13.311351s5.971816-13.311704 13.311704-13.311703 13.311704 5.971816 13.311703 13.311703-5.971464 13.311351-13.311703 13.311351z m0-23.800835c-5.784139 0-10.489484 4.705698-10.489485 10.489484s4.705698 10.489131 10.489485 10.489132 10.489484-4.705345 10.489484-10.489132-4.705345-10.489484-10.489484-10.489484z" fill="#0E0E0E" p-id="4875"></path><path d="M577.856844 346.291973c-5.452528 0-9.888704-4.436176-9.888704-9.889057s4.436176-9.889057 9.888704-9.889057c5.452881 0 9.889057 4.436176 9.889057 9.889057s-4.436176 9.889057-9.889057 9.889057z m0-16.955895c-3.896427 0-7.066485 3.170058-7.066485 7.066838 0 3.896427 3.170058 7.066838 7.066485 7.066837 3.89678 0 7.066838-3.170058 7.066838-7.066837s-3.170058-7.066838-7.066838-7.066838z" fill="#0E0E0E" p-id="4876"></path><path d="M676.810561 360.20622c-5.452528 0-9.888704-4.436176-9.888704-9.889057s4.436176-9.889057 9.888704-9.889057c5.452881 0 9.889057 4.436176 9.889057 9.889057s-4.436176 9.889057-9.889057 9.889057z m0-16.955894c-3.896427 0-7.066485 3.170058-7.066484 7.066837s3.170058 7.066838 7.066484 7.066838c3.89678 0 7.066838-3.170058 7.066838-7.066838s-3.170058-7.066838-7.066838-7.066837z" fill="#0E0E0E" p-id="4877"></path><path d="M297.434415 485.237951c-6.374688 0-11.561222-5.186534-11.561222-11.561222s5.186534-11.561222 11.561222-11.561222 11.561222 5.186534 11.561222 11.561222-5.186181 11.561222-11.561222 11.561222z m0-20.300224c-4.818587 0-8.739003 3.920416-8.739002 8.739002s3.920416 8.739003 8.739002 8.739003 8.739003-3.920416 8.739003-8.739003-3.920416-8.739003-8.739003-8.739002z" fill="#0E0E0E" p-id="4878"></path><path d="M174.977607 692.855232h39.511072v2.822219H174.977607z" fill="#0E0E0E" p-id="4879"></path><path d="M823.379707 692.171196H862.893602v2.82222h-39.513895z" fill="#0E0E0E" p-id="4880"></path></svg>