<?xml version="1.0" standalone="no"?><!DOCTYPE svg PUBLIC "-//W3C//DTD SVG 1.1//EN" "http://www.w3.org/Graphics/SVG/1.1/DTD/svg11.dtd"><svg t="1521772710473" class="icon" style="" viewBox="0 0 1024 1024" version="1.1" xmlns="http://www.w3.org/2000/svg" p-id="3678" xmlns:xlink="http://www.w3.org/1999/xlink" width="200" height="200"><defs><style type="text/css"></style></defs><path d="M656.5888 317.44c-12.0832 0-21.9136-9.8304-21.9136-21.9136 0-12.0832 9.8304-21.9136 21.9136-21.9136 12.0832 0 21.9136 9.8304 21.9136 21.9136 0 12.0832-9.8304 21.9136-21.9136 21.9136z m0-33.1776c-6.144 0-11.264 4.9152-11.264 11.264 0 6.144 4.9152 11.264 11.264 11.264 6.144 0 11.264-4.9152 11.264-11.264-0.2048-6.144-5.12-11.264-11.264-11.264z m0 0" fill="#47B7F8" p-id="3679"></path><path d="M263.5776 568.1152c0 130.048 105.472 235.52 235.52 235.52s235.52-105.472 235.52-235.52-105.472-235.52-235.52-235.52-235.52 105.472-235.52 235.52z m0 0" fill="#FFDC4B" p-id="3680"></path><path d="M609.4848 361.6768s-97.8944-57.344-206.6432-6.9632c0 0-111.616 42.8032-135.9872 169.1648 0.2048 0 101.1712-208.6912 342.6304-162.2016z m0 0" fill="#FFFFFF" p-id="3681"></path><path d="M388.7104 774.5536s98.304 57.5488 207.4624 6.9632c0 0 112.0256-43.008 136.6016-169.984 0 0-101.5808 209.7152-344.064 163.0208z m0 0" fill="#F8B62D" p-id="3682"></path><path d="M499.0976 821.6576c-128.2048-0.2048-236.544-95.0272-253.5424-222.0032-0.6144-5.3248 3.072-10.24 8.6016-11.0592 5.3248-0.6144 10.4448 3.072 11.0592 8.3968 15.5648 116.736 116.1216 204.8 233.8816 204.8 109.7728 0 204.5952-76.5952 229.5808-181.6576l-27.2384 18.8416c-2.8672 2.048-6.7584 2.4576-9.8304 0.8192-3.2768-1.4336-5.3248-4.7104-5.7344-8.192-0.2048-3.4816 1.4336-6.9632 4.3008-9.0112l46.8992-32.5632c3.2768-2.2528 7.3728-2.4576 10.8544-0.4096s5.12 5.9392 4.7104 9.8304c-16.9984 127.1808-125.3376 222.0032-253.5424 222.208z m243.712-273.8176c-4.9152 0-9.216-3.6864-9.8304-8.6016-15.5648-116.736-116.1216-204.8-233.8816-204.8-109.7728 0-204.5952 76.5952-229.5808 181.6576l27.4432-18.6368c4.5056-3.072 10.6496-1.8432 13.7216 2.6624s1.8432 10.6496-2.6624 13.7216l-46.8992 31.9488c-3.2768 2.2528-7.3728 2.2528-10.8544 0.2048-3.2768-2.048-5.12-5.9392-4.7104-9.8304 17.2032-126.976 125.5424-221.5936 253.5424-221.5936 128.2048 0 236.3392 95.0272 253.3376 222.0032 0.4096 2.8672-0.4096 5.7344-2.4576 7.7824-1.6384 2.2528-4.5056 3.4816-7.168 3.4816z m0 0" fill="#3A3644" p-id="3683"></path><path d="M564.0192 578.1504H405.504c-5.5296 0-9.8304-4.5056-9.8304-9.8304s4.5056-9.8304 9.8304-9.8304h158.5152c5.5296 0 9.8304 4.5056 9.8304 9.8304s-4.5056 9.8304-9.8304 9.8304z m0 63.2832H405.504c-5.5296 0-9.8304-4.5056-9.8304-9.8304 0-5.5296 4.5056-9.8304 9.8304-9.8304h158.5152c5.5296 0 9.8304 4.5056 9.8304 9.8304 0 5.5296-4.5056 9.8304-9.8304 9.8304z m0 0" fill="#F8B62D" p-id="3684"></path><path d="M484.7616 704.9216c-5.5296 0-9.8304-4.5056-9.8304-9.8304v-122.6752l-61.0304-61.2352c-2.4576-2.4576-3.4816-6.144-2.4576-9.6256 1.024-3.4816 3.6864-6.144 6.9632-6.9632 3.4816-0.8192 7.168 0 9.6256 2.6624l66.7648 67.1744v130.8672c-0.2048 5.12-4.7104 9.6256-10.0352 9.6256z m0 0" fill="#F8B62D" p-id="3685"></path><path d="M484.7616 578.1504c-4.096 0-7.5776-2.4576-9.216-6.144-1.4336-3.6864-0.6144-7.9872 2.2528-10.8544l63.488-63.488c3.8912-3.8912 10.24-3.8912 13.9264 0 3.8912 3.8912 3.8912 10.24 0 13.9264l-63.488 63.488c-1.8432 2.048-4.3008 3.072-6.9632 3.072z m0 0" fill="#F8B62D" p-id="3686"></path><path d="M552.5504 567.7056h-158.5152c-5.5296 0-9.8304-4.5056-9.8304-9.8304 0-5.5296 4.5056-9.8304 9.8304-9.8304h158.5152c5.5296 0 9.8304 4.5056 9.8304 9.8304 0 5.5296-4.3008 9.8304-9.8304 9.8304z m0 63.488h-158.5152c-5.5296 0-9.8304-4.5056-9.8304-9.8304 0-5.5296 4.5056-9.8304 9.8304-9.8304h158.5152c5.5296 0 9.8304 4.5056 9.8304 9.8304 0 5.3248-4.3008 9.8304-9.8304 9.8304z m0 0" fill="#3A3644" p-id="3687"></path><path d="M473.2928 694.4768c-5.5296 0-9.8304-4.5056-9.8304-9.8304v-122.6752l-61.0304-61.2352c-2.4576-2.4576-3.4816-6.144-2.4576-9.6256 1.024-3.4816 3.6864-6.144 6.9632-6.9632 3.4816-0.8192 7.168 0 9.6256 2.6624l66.7648 67.1744v130.8672c-0.2048 5.3248-4.5056 9.6256-10.0352 9.6256z m0 0" fill="#3A3644" p-id="3688"></path><path d="M473.2928 567.7056c-4.096 0-7.5776-2.4576-9.216-6.144-1.4336-3.6864-0.6144-7.9872 2.2528-10.8544l63.488-63.488c3.8912-3.8912 10.24-3.8912 13.9264 0 3.8912 3.8912 3.8912 10.24 0 13.9264l-63.488 63.488c-1.8432 2.048-4.3008 3.072-6.9632 3.072z m0 0" fill="#3A3644" p-id="3689"></path><path d="M300.4416 352.4608H290.816v-9.6256c0-2.6624-2.048-4.7104-4.7104-4.7104-2.6624 0-4.7104 2.048-4.7104 4.7104v9.6256h-9.6256c-2.6624 0-4.7104 2.048-4.7104 4.7104 0 2.6624 2.048 4.7104 4.7104 4.7104h9.6256v9.6256c0 2.6624 2.048 4.7104 4.7104 4.7104 2.6624 0 4.7104-2.048 4.7104-4.7104v-9.6256h9.6256c2.6624 0 4.7104-2.048 4.7104-4.7104 0-2.6624-2.048-4.7104-4.7104-4.7104z m485.5808 93.3888h-9.6256V436.224c0-2.6624-2.048-4.7104-4.7104-4.7104-2.6624 0-4.7104 2.048-4.7104 4.7104v9.6256h-9.6256c-2.6624 0-4.7104 2.048-4.7104 4.7104 0 2.6624 2.048 4.7104 4.7104 4.7104h9.6256v9.6256c0 2.6624 2.048 4.7104 4.7104 4.7104 2.6624 0 4.7104-2.048 4.7104-4.7104v-9.6256h9.6256c2.6624 0 4.7104-2.048 4.7104-4.7104 0-2.6624-2.048-4.7104-4.7104-4.7104z m0 0" fill="#F7E42F" p-id="3690"></path><path d="M190.6688 572.416h-11.264V561.152c0-3.072-2.4576-5.3248-5.3248-5.3248-3.072 0-5.3248 2.4576-5.3248 5.3248v11.264h-11.264c-3.072 0-5.3248 2.4576-5.3248 5.3248s2.4576 5.3248 5.3248 5.3248h11.264v11.264c0 3.072 2.4576 5.3248 5.3248 5.3248 3.072 0 5.3248-2.4576 5.3248-5.3248v-11.264h11.264c3.072 0 5.3248-2.4576 5.3248-5.3248 0.2048-2.8672-2.2528-5.3248-5.3248-5.3248z m0 0" fill="#F8B62D" p-id="3691"></path><path d="M365.568 303.5136c0 2.8672 1.6384 5.5296 4.096 6.9632 2.4576 1.4336 5.5296 1.4336 8.192 0 2.4576-1.4336 4.096-4.096 4.096-6.9632s-1.6384-5.5296-4.096-6.9632c-2.4576-1.4336-5.5296-1.4336-8.192 0-2.6624 1.4336-4.096 4.096-4.096 6.9632z m0 0M725.1968 346.3168c0 3.8912 2.048 7.3728 5.3248 9.4208 3.2768 1.8432 7.3728 1.8432 10.8544 0 3.2768-1.8432 5.3248-5.5296 5.3248-9.4208 0-3.8912-2.048-7.3728-5.3248-9.4208-3.2768-1.8432-7.3728-1.8432-10.8544 0-3.2768 2.048-5.3248 5.5296-5.3248 9.4208z m0 0" fill="#F8B62D" p-id="3692"></path><path d="M180.0192 303.5136c0 3.8912 2.048 7.3728 5.3248 9.4208 3.2768 1.8432 7.3728 1.8432 10.8544 0 3.2768-1.8432 5.3248-5.5296 5.3248-9.4208 0-3.8912-2.048-7.3728-5.3248-9.4208-3.2768-1.8432-7.3728-1.8432-10.8544 0-3.2768 2.048-5.3248 5.5296-5.3248 9.4208z m0 0" fill="#F7E42F" p-id="3693"></path><path d="M201.1136 450.56c-12.0832 0-21.9136-9.8304-21.9136-21.9136 0-12.0832 9.8304-21.9136 21.9136-21.9136 12.0832 0 21.9136 9.8304 21.9136 21.9136S213.1968 450.56 201.1136 450.56z m0-33.1776c-6.144 0-11.264 4.9152-11.264 11.264 0 6.144 4.9152 11.264 11.264 11.264 6.144 0 11.264-4.9152 11.264-11.264s-5.12-11.264-11.264-11.264z m0 0" fill="#F8B62D" p-id="3694"></path><path d="M465.5104 214.6304c-1.2288-1.024-3.072-1.024-4.3008 0-0.6144 0.6144-0.8192 1.2288-0.8192 2.048s0.4096 1.4336 0.8192 2.048l9.6256 9.6256c0.6144 0.6144 1.2288 0.8192 2.048 0.8192s1.4336-0.4096 2.048-0.8192c1.024-1.2288 1.024-3.072 0-4.3008l-9.4208-9.4208z m25.3952 25.1904c-0.6144-0.6144-1.2288-0.8192-2.048-0.8192s-1.4336 0.4096-2.048 0.8192c-1.024 1.2288-1.024 3.072 0 4.3008l9.6256 9.6256c0.6144 0.6144 1.2288 0.8192 2.048 0.8192s1.4336-0.4096 2.048-0.8192c0.6144-0.6144 0.8192-1.2288 0.8192-2.048s-0.4096-1.4336-0.8192-2.048l-9.6256-9.8304z m-2.048-10.6496c0.8192 0 1.4336-0.4096 2.048-0.8192l9.6256-9.6256c0.6144-0.6144 0.8192-1.2288 0.8192-2.048s-0.4096-1.4336-0.8192-2.048c-1.2288-1.2288-3.072-1.2288-4.3008 0l-9.6256 9.6256c-1.024 1.2288-1.024 3.072 0 4.3008 0.6144 0.4096 1.4336 0.6144 2.2528 0.6144z m-17.8176 10.6496l-9.6256 9.6256c-0.6144 0.6144-0.8192 1.2288-0.8192 2.048s0.4096 1.4336 0.8192 2.048c0.6144 0.6144 1.2288 0.8192 2.048 0.8192s1.4336-0.4096 2.048-0.8192l9.6256-9.6256c1.024-1.2288 1.024-3.072 0-4.3008-1.024-0.8192-3.072-0.8192-4.096 0.2048z m1.8432-5.7344c0-1.6384-1.4336-3.072-3.072-3.072h-13.5168c-1.6384 0-3.072 1.4336-3.072 3.072s1.4336 3.072 3.072 3.072h13.5168c1.6384 0 3.072-1.4336 3.072-3.072z m32.768-3.072h-13.5168c-1.6384 0-3.072 1.4336-3.072 3.072s1.4336 3.072 3.072 3.072h13.5168c1.6384 0 3.072-1.4336 3.072-3.072s-1.4336-3.072-3.072-3.072z m-24.7808-24.576c-1.6384 0-3.072 1.4336-3.072 3.072v13.5168c0 1.6384 1.4336 3.072 3.072 3.072s3.072-1.4336 3.072-3.072v-13.5168c0-1.6384-1.2288-3.072-3.072-3.072z m0 35.84c-1.6384 0-3.072 1.4336-3.072 3.072v13.5168c0 1.6384 1.4336 3.072 3.072 3.072s3.072-1.4336 3.072-3.072v-13.5168c0-1.8432-1.2288-3.072-3.072-3.072z m0 0" fill="#FAEE00" p-id="3695"></path><path d="M828.416 550.912c-1.2288-1.024-3.072-1.024-4.3008 0-0.6144 0.6144-0.8192 1.2288-0.8192 2.048s0.4096 1.4336 0.8192 2.048l9.6256 9.6256c0.6144 0.6144 1.2288 0.8192 2.048 0.8192s1.4336-0.4096 2.048-0.8192c1.024-1.2288 1.024-3.072 0-4.3008l-9.4208-9.4208z m25.3952 25.3952c-0.6144-0.6144-1.2288-0.8192-2.048-0.8192s-1.4336 0.4096-2.048 0.8192c-1.024 1.2288-1.024 3.072 0 4.3008l9.6256 9.6256c0.6144 0.6144 1.2288 0.8192 2.048 0.8192s1.4336-0.4096 2.048-0.8192c0.6144-0.6144 0.8192-1.2288 0.8192-2.048s-0.4096-1.4336-0.8192-2.048l-9.6256-9.8304z m-2.2528-10.6496c0.8192 0 1.4336-0.4096 2.048-0.8192l9.6256-9.6256c0.6144-0.6144 0.8192-1.2288 0.8192-2.048s-0.4096-1.4336-0.8192-2.048c-1.2288-1.2288-3.072-1.2288-4.3008 0l-9.6256 9.6256c-1.024 1.2288-1.024 3.072 0 4.3008 0.8192 0.2048 1.4336 0.6144 2.2528 0.6144z m-17.8176 10.6496l-9.6256 9.6256c-0.6144 0.6144-0.8192 1.2288-0.8192 2.048s0.4096 1.4336 0.8192 2.048c0.6144 0.6144 1.2288 0.8192 2.048 0.8192s1.4336-0.4096 2.048-0.8192l9.6256-9.6256c1.024-1.2288 1.024-3.072 0-4.3008-1.024-1.024-2.8672-1.024-4.096 0.2048z m1.8432-5.7344c0-1.6384-1.4336-3.072-3.072-3.072h-13.5168c-1.6384 0-3.072 1.4336-3.072 3.072s1.4336 3.072 3.072 3.072h13.5168c1.6384-0.2048 3.072-1.4336 3.072-3.072z m32.9728-3.072h-13.5168c-1.6384 0-3.072 1.4336-3.072 3.072s1.4336 3.072 3.072 3.072h13.5168c1.6384 0 3.072-1.4336 3.072-3.072-0.2048-1.6384-1.6384-3.072-3.072-3.072z m-24.7808-24.576c-1.6384 0-3.072 1.4336-3.072 3.072v13.5168c0 1.6384 1.4336 3.072 3.072 3.072s3.072-1.4336 3.072-3.072v-13.5168c0-1.8432-1.4336-3.072-3.072-3.072z m0 35.84c-1.6384 0-3.072 1.4336-3.072 3.072v13.5168c0 1.6384 1.4336 3.072 3.072 3.072s3.072-1.4336 3.072-3.072V581.632c0-1.6384-1.4336-2.8672-3.072-2.8672z m0 0" fill="#F8B62D" p-id="3696"></path><path d="M770.6624 818.5856h-19.2512c-4.5056 0-8.192-3.6864-8.192-8.192s3.6864-8.192 8.192-8.192h19.2512c4.5056 0 8.192 3.6864 8.192 8.192-0.2048 4.7104-3.6864 8.192-8.192 8.192z m-515.8912 0h-24.576c-4.5056 0-8.192-3.6864-8.192-8.192s3.6864-8.192 8.192-8.192h24.576c4.5056 0 8.192 3.6864 8.192 8.192 0 4.7104-3.6864 8.192-8.192 8.192z m472.6784 0H282.0096c-4.5056 0-8.192-3.6864-8.192-8.192s3.6864-8.192 8.192-8.192h445.2352c4.5056 0 8.192 3.6864 8.192 8.192 0 4.7104-3.4816 8.192-7.9872 8.192z m0 0M296.7552 434.176c-1.8432 0-3.4816-0.6144-4.9152-1.8432-3.4816-2.8672-4.096-7.7824-1.4336-11.4688l19.8656-24.9856c2.8672-3.4816 7.7824-4.096 11.4688-1.4336 3.4816 2.8672 4.096 7.7824 1.4336 11.4688l-19.8656 24.9856c-1.8432 2.2528-4.3008 3.2768-6.5536 3.2768z m0 0" fill="#3E3A39" p-id="3697"></path></svg>