<?xml version="1.0" standalone="no"?><!DOCTYPE svg PUBLIC "-//W3C//DTD SVG 1.1//EN" "http://www.w3.org/Graphics/SVG/1.1/DTD/svg11.dtd"><svg t="1521860247813" class="icon" style="" viewBox="0 0 1024 1024" version="1.1" xmlns="http://www.w3.org/2000/svg" p-id="2277" xmlns:xlink="http://www.w3.org/1999/xlink" width="200" height="200"><defs><style type="text/css"></style></defs><path d="M280 1011.2c-32.8 0-115.2-7.2-176.8-71.2-51.2-53.6-75.2-132-72-234.4 8-210.4 193.6-352 272.8-402.4l12.8-8-9.6-11.2c-20-22.4-53.6-66.4-61.6-117.6-4.8-31.2 2.4-59.2 20-80.8 21.6-28 47.2-33.6 64.8-33.6 19.2 0 40 7.2 60.8 20l8.8 6.4 7.2-9.6c18.4-24.8 52-55.2 103.2-56h1.6c52 0 85.6 30.4 104.8 56l7.2 9.6 9.6-6.4c20.8-13.6 41.6-20 60.8-20 17.6 0 43.2 5.6 64.8 33.6 17.6 22.4 24 50.4 19.2 80.8-5.6 37.6-28 80.8-61.6 117.6l-9.6 11.2 12.8 8c79.2 51.2 264.8 192 272.8 402.4 4 102.4-20.8 181.6-72 234.4-61.6 64-144.8 71.2-176.8 71.2H280z" fill="#FBD956" p-id="2278"></path><path d="M279.2 1012.8c-32.8 0-115.2-7.2-177.6-71.2-51.2-53.6-75.2-132-72-235.2 8-211.2 194.4-352.8 273.6-403.2l12.8-8-9.6-11.2c-20-22.4-53.6-66.4-61.6-117.6-4.8-31.2 2.4-59.2 20-80.8 21.6-28 47.2-33.6 64.8-33.6 19.2 0 40 7.2 60.8 20l9.6 5.6 7.2-9.6c18.4-24.8 52-55.2 103.2-56h1.6c52 0 85.6 30.4 104.8 56l7.2 9.6 9.6-6.4c20.8-13.6 41.6-20 60.8-20 17.6 0 43.2 5.6 64.8 33.6 17.6 22.4 24 50.4 19.2 80.8-5.6 37.6-28 80.8-61.6 117.6l-9.6 11.2 12.8 8c79.2 51.2 265.6 192.8 273.6 403.2 4 102.4-20.8 182.4-72 235.2-61.6 64-144.8 71.2-177.6 71.2H279.2z m85.6-691.2c-28.8 16-278.4 160-287.2 385.6-3.2 89.6 16.8 156.8 58.4 200.8 48.8 50.4 116 56 142.4 56h464.8c26.4 0 93.6-5.6 142.4-56 41.6-43.2 61.6-110.4 58.4-200-8-227.2-258.4-370.4-286.4-385.6l-4.8-3.2-5.6 1.6c-2.4 0.8-4.8 1.6-7.2 1.6H384c-2.4 0-4.8-0.8-8-1.6l-5.6-1.6c-0.8 0-5.6 2.4-5.6 2.4z m-36-223.2c-6.4 0-16 1.6-27.2 15.2-9.6 12-12.8 26.4-9.6 44.8 6.4 46.4 48 95.2 72.8 115.2l4.8 4 6.4-1.6c3.2-0.8 4.8-1.6 6.4-1.6h258.4c0.8 0 2.4 0.8 4 0.8l8 2.4 4.8-4c24.8-20 66.4-68.8 72.8-115.2 2.4-18.4-0.8-32.8-9.6-44.8-10.4-13.6-20-15.2-27.2-15.2-23.2 0-51.2 24-60 33.6-4.8 4.8-11.2 8-17.6 8-1.6 0-3.2 0-4.8-0.8-8-1.6-15.2-7.2-17.6-15.2-2.4-7.2-27.2-64-81.6-64h-1.6c-56.8 0.8-80 61.6-80.8 64-3.2 8-9.6 13.6-17.6 15.2-1.6 0-3.2 0.8-4.8 0.8-6.4 0-12.8-2.4-17.6-8-8.8-9.6-37.6-33.6-60.8-33.6z" fill="#444444" p-id="2279"></path><path d="M512 834.4c-13.6 0-24-10.4-24-24v-67.2H384c-13.6 0-24-10.4-24-24s10.4-24 24-24h104v-60.8H384c-13.6 0-24-10.4-24-24s10.4-24 24-24h111.2L384 475.2c-4.8-4.8-7.2-10.4-7.2-16.8s2.4-12.8 7.2-16.8c4.8-4.8 10.4-7.2 16.8-7.2s12.8 2.4 16.8 7.2L512 535.2l93.6-94.4c4.8-4.8 10.4-7.2 16.8-7.2s12.8 2.4 16.8 7.2c9.6 9.6 9.6 24.8 0 33.6l-110.4 112H640c13.6 0 24 10.4 24 24s-10.4 24-24 24H536v60.8h104c13.6 0 24 10.4 24 24s-10.4 24-24 24H536v67.2c0 12.8-10.4 24-24 24z" fill="#444444" p-id="2280"></path></svg>